<svg id="Capa_1" enable-background="new 0 0 512 512" height="512" viewBox="0 0 512 512" width="512" xmlns="http://www.w3.org/2000/svg"><g><g fill="#b5dbff"><path d="m437 331h75v30h-75z"/><path d="m437 271h75v30h-75z"/><path d="m437 211h75v30h-75z"/><path d="m437 151h75v30h-75z"/><path d="m331 437h30v75h-30z"/><path d="m271 437h30v75h-30z"/></g><path d="m211 437h30v75h-30z" fill="#d5e8fe"/><path d="m0 331h75v30h-75z" fill="#d5e8fe"/><path d="m151 437h30v75h-30z" fill="#d5e8fe"/><path d="m0 271h75v30h-75z" fill="#d5e8fe"/><path d="m0 211h75v30h-75z" fill="#d5e8fe"/><path d="m0 151h75v30h-75z" fill="#d5e8fe"/><path d="m331 0h30v76h-30z" fill="#b5dbff"/><path d="m271 0h30v76h-30z" fill="#b5dbff"/><path d="m211 0h30v76h-30z" fill="#d5e8fe"/><path d="m151 0h30v76h-30z" fill="#d5e8fe"/><path d="m60 61v391h392v-391z" fill="#415ba5"/><path d="m256 61h196v391h-196z" fill="#29376d"/><path d="m286 204.042c-8.514-4.918-18.843-10.177-30-15.101-42.783-18.885-98.412-32.556-116.909-.441-23.416 40.563 46.071 95.883 86.909 119.458 8.624 4.98 19.036 10.115 30 14.96 43.347 19.156 98.553 32.417 116.909.582 23.416-40.563-46.071-95.883-86.909-119.458zm60.923 104.458c-7.965 13.749-59.211-3.799-90.923-18.849-5.691-2.701-10.946-5.336-15-7.679-26.283-15.174-85.739-61.395-75.923-78.472 7.511-13.037 57.85 3.074 90.923 18.799 5.543 2.635 10.719 5.255 15 7.729 26.283 15.174 85.739 61.396 75.923 78.472z" fill="#9bfcff"/><path d="m372.909 323.5c23.416-40.563-46.071-95.883-86.909-119.458-8.514-4.918-18.843-10.177-30-15.101v33.358c5.543 2.635 10.719 5.255 15 7.729 26.283 15.174 85.739 61.395 75.923 78.472-7.965 13.749-59.211-3.799-90.923-18.849v33.267c43.347 19.156 98.553 32.417 116.909.582z" fill="#76e2f8"/><path d="m372.909 188.5c-18.497-32.117-74.128-18.442-116.909.441-11.157 4.924-21.486 10.182-30 15.101-40.838 23.575-110.325 78.895-86.909 119.458 18.484 32.054 74.086 18.305 116.909-.595 11.085-4.893 21.533-10.056 30-14.947 40.838-23.575 110.325-78.895 86.909-119.458zm-101.909 93.472c-4.026 2.327-9.291 4.99-15 7.729-31.481 15.104-82.628 33.228-90.923 18.799-9.355-16.276 49.327-63.116 75.923-78.472 4.387-2.534 9.529-5.176 15-7.819 33.684-16.265 83.15-32.205 90.923-18.71 9.355 16.277-49.327 63.117-75.923 78.473z" fill="#9bfcff"/><path d="m372.909 188.5c-18.497-32.117-74.128-18.442-116.909.441v33.268c33.684-16.265 83.15-32.205 90.923-18.71 9.355 16.276-49.327 63.116-75.923 78.472-4.026 2.327-9.291 4.99-15 7.729v33.204c11.085-4.893 21.533-10.056 30-14.947 40.838-23.574 110.325-78.894 86.909-119.457z" fill="#76e2f8"/><path d="m256 121c-39.39 0-60 67.91-60 135s20.61 135 60 135 60-67.91 60-135-20.61-135-60-135zm0 240c-8.701 0-30-36.797-30-105s21.299-105 30-105 30 36.797 30 105-21.299 105-30 105z" fill="#9bfcff"/><path d="m316 256c0-67.09-20.61-135-60-135v30c8.701 0 30 36.797 30 105s-21.299 105-30 105v30c39.39 0 60-67.91 60-135z" fill="#76e2f8"/></g></svg>